<svg width="20" height="20" viewBox="0 0 20 20" fill="none" xmlns="http://www.w3.org/2000/svg">
<path d="M19.1654 6.2859L18.0568 5.22235V2.82509C18.0568 1.28124 16.8024 0.0268555 15.2586 0.0268555C13.8519 0.0268555 12.6876 1.0711 12.4925 2.42412H9.26326C8.84299 2.42412 8.43129 2.59566 8.13324 2.89156L0.937171 10.0876C0.641266 10.3857 0.469727 10.7974 0.469727 11.2198C0.469727 11.6422 0.641266 12.0518 0.937171 12.3498L5.73384 17.1465C6.03189 17.4445 6.44358 17.6139 6.86385 17.6139C7.28412 17.6139 7.69582 17.4424 7.99387 17.1465L9.26112 15.8792V17.6161C9.26112 18.0363 9.43909 18.4502 9.75 18.7504C10.0545 19.0463 10.479 19.2157 10.9165 19.2157H17.9989C18.4342 19.2157 18.8587 19.0463 19.1654 18.7504C19.4763 18.4502 19.6543 18.0363 19.6543 17.6161V7.42234C19.6564 7.00207 19.4784 6.58823 19.1654 6.2859ZM15.2586 0.826657C16.3607 0.826657 17.257 1.72295 17.257 2.82509V4.45686L15.6252 2.89156C15.2671 2.54205 14.7632 2.38338 14.2701 2.4477C14.2014 2.43484 14.1328 2.42841 14.0599 2.42841H13.3009C13.4874 1.51496 14.2936 0.826657 15.2586 0.826657ZM12.8613 3.99799C13.5367 3.99799 14.0857 4.54692 14.0857 5.22235C14.0857 5.89779 13.5367 6.44671 12.8613 6.44671C12.1859 6.44671 11.6369 5.89779 11.6369 5.22235C11.6369 4.54906 12.1859 3.99799 12.8613 3.99799ZM18.8566 17.6139C18.8566 17.8176 18.7665 18.0235 18.61 18.1736C18.4535 18.3258 18.2305 18.4116 18.001 18.4116H10.9186C10.6892 18.4116 10.4662 18.3237 10.3096 18.1736C10.1531 18.0235 10.0631 17.8176 10.0631 17.6139V15.0794L15.1899 9.95255C15.488 9.6545 15.6574 9.2428 15.6574 8.82253V4.03015L18.61 6.86055C18.7665 7.01065 18.8566 7.2165 18.8566 7.4202V17.6139Z" fill="#13A6BA"/>
<path d="M12.8613 5.62334C13.0821 5.62334 13.2601 5.44323 13.2601 5.22451C13.2601 5.00366 13.08 4.82568 12.8613 4.82568C12.6425 4.82568 12.4624 5.0058 12.4624 5.22451C12.4603 5.44323 12.6404 5.62334 12.8613 5.62334Z" fill="#13A6BA"/>
</svg>
